#!OML:ASF E:\Steps\Project 1\Capture day 1\Session 2\Subject.ASF
:FULLY-SPECIFIED
:DEGREES
641
root 9.67824 20.5853 -7.92082 -156.166 0.0158798 175.4
lowerback -19.1898 -0.815663 -7.56409
upperback 1.92209 0.745153 -1.27689
thorax 12.9496 -0.191907 3.08438
lowerneck -0.666719 -0.306622 -3.48027
upperneck 20.4734 -3.06151 5.98034
head 6.4327 -1.95528 2.25642
rclavicle 8.94531e-015 1.45113e-014
rhumerus -33.0579 -11.9401 -80.2247
rradius 37.624
rwrist -5.98758
rhand -9.35362 -50.1836
rfingers 7.12502
rthumb 16.606 -79.4931
lclavicle 8.94531e-015 1.45113e-014
lhumerus -31.1937 2.25142 79.035
lradius 27.0149
lwrist -1.65903
lhand -18.6606 -13.2292
lfingers 7.12502
lthumb 7.63272 16.6131
rfemur -28.8024 5.17811 20.2449
rtibia 16.8361
rfoot -18.2782 -9.45595
rtoes -13.5299
lfemur -76.8579 -4.59456 -22.8813
ltibia 87.2231
lfoot -14.3193 3.70781
ltoes -29.9846
642
root 9.68691 20.5905 -7.95554 -156.268 0.0864813 175.312
lowerback -19.0533 -0.749095 -7.68179
upperback 1.90548 0.853191 -1.3682
thorax 12.839 -0.143992 3.07896
lowerneck -0.165185 -0.269399 -3.14844
upperneck 19.9911 -2.93686 5.75164
head 6.18034 -1.88846 2.13773
rclavicle -1.07344e-014 2.9122e-014
rhumerus -32.8465 -11.8248 -80.3574
rradius 37.438
rwrist -5.99597
rhand -9.39944 -50.0654
rfingers 7.12502
rthumb 16.5619 -79.3787
lclavicle -1.07344e-014 2.9122e-014
lhumerus -30.9559 2.12506 78.9713
lradius 26.5003
lwrist -1.45528
lhand -18.8315 -13.1521
lfingers 7.12502
lthumb 7.46776 16.6961
rfemur -28.6819 5.26441 20.1892
rtibia 17.1218
rfoot -18.5578 -9.69
rtoes -14.8061
lfemur -77.1627 -4.5622 -22.9812
ltibia 85.6456
lfoot -14.2437 3.95479
ltoes -32.9656
643
root 9.69456 20.5936 -7.99298 -156.407 0.140492 175.226
lowerback -19.0015 -0.681384 -7.76538
upperback 1.94288 0.969502 -1.48234
thorax 12.8406 -0.094003 3.03099
lowerneck -0.1858 -0.297302 -3.22996
upperneck 19.9374 -2.98252 5.8952
head 6.17133 -1.9031 2.19502
rclavicle -1.98785e-016 -3.00165e-014
rhumerus -32.7173 -11.613 -80.5576
rradius 37.4476
rwrist -6.15015
rhand -9.38984 -50.2051
rfingers 7.12502
rthumb 16.5711 -79.5175
lclavicle -1.98785e-016 -3.00165e-014
lhumerus -30.7711 2.66098 78.7159
lradius 25.9721
lwrist -1.96416
lhand -18.8403 -13.1973
lfingers 7.12502
lthumb 7.45925 16.6512
rfemur -28.3532 5.42306 20.103
rtibia 16.9735
rfoot -18.4698 -9.87671
rtoes -15.3209
lfemur -77.3909 -4.59034 -22.9993
ltibia 84.1266
lfoot -14.2929 3.5971
ltoes -32.4714
644
root 9.6995 20.5925 -8.03372 -156.532 0.0717534 175.197
lowerback -19.0144 -0.651621 -7.76513
upperback 2.05285 1.02703 -1.55552
thorax 12.9716 -0.0713812 2.96475
lowerneck -0.014158 -0.334972 -3.21955
upperneck 19.931 -3.05661 5.90696
head 6.14341 -1.94546 2.19413
rclavicle -1.3418e-015 5.62561e-014
rhumerus -32.5283 -11.3704 -80.7672
rradius 37.5669
rwrist -6.37857
rhand -9.54553 -50.2846
rfingers 7.12502
rthumb 16.4212 -79.6096
lclavicle -1.3418e-015 5.62561e-014
lhumerus -30.7782 3.09289 78.5281
lradius 25.7995
lwrist -2.37121
lhand -18.8869 -13.2096
lfingers 7.12502
lthumb 7.41431 16.6405
rfemur -27.6901 5.58161 20.0701
rtibia 16.3297
rfoot -18.398 -9.87513
rtoes -14.0063
lfemur -77.6357 -4.72841 -22.8849
ltibia 82.6306
lfoot -14.1268 2.97134
ltoes -29.5411
645
root 9.70544 20.5898 -8.07055 -156.526 0.0290563 175.198
lowerback -19.0369 -0.585662 -7.71041
upperback 2.01114 1.10681 -1.64214
thorax 12.9294 -0.0264666 2.85984
lowerneck 0.405438 -0.326659 -3.26301
upperneck 19.5366 -3.05235 6.14845
head 5.94892 -1.93602 2.28236
rclavicle -9.69075e-015 2.64384e-014
rhumerus -32.5648 -11.1615 -80.9209
rradius 37.7541
rwrist -6.59683
rhand -9.53008 -50.1623
rfingers 7.12502
rthumb 16.4361 -79.486
lclavicle -9.69075e-015 2.64384e-014
lhumerus -31.3476 3.0165 78.4293
lradius 26.0037
lwrist -2.43957
lhand -18.9366 -13.2479
lfingers 7.12502
lthumb 7.36632 16.6038
rfemur -27.3355 5.65311 20.0899
rtibia 16.0199
rfoot -18.5011 -9.8055
rtoes -12.7595
lfemur -77.9298 -4.79959 -22.778
ltibia 81.0968
lfoot -13.7875 2.62865
ltoes -28.5248
646
root 9.71529 20.5884 -8.103 -156.472 0.0279704 175.234
lowerback -19.0545 -0.549395 -7.69281
upperback 2.02681 1.15781 -1.68674
thorax 12.9536 -0.0015538 2.81464
lowerneck 0.331062 -0.313726 -3.13687
upperneck 19.4885 -2.98949 6.00167
head 5.94074 -1.89795 2.21717
rclavicle -7.35503e-015 -7.39479e-014
rhumerus -32.3331 -10.9945 -81.1171
rradius 37.7845
rwrist -6.60132
rhand -9.5002 -50.1355
rfingers 7.12502
rthumb 16.4649 -79.4568
lclavicle -7.35503e-015 -7.39479e-014
lhumerus -31.5569 3.2426 78.3107
lradius 26.0067
lwrist -2.68298
lhand -19.0381 -13.7317
lfingers 7.12502
lthumb 7.2684 16.1234
rfemur -27.3355 5.78343 20.1384
rtibia 16.1775
rfoot -18.7272 -9.84262
rtoes -12.0073
lfemur -78.1728 -4.81808 -22.6142
ltibia 79.5635
lfoot -13.5392 2.48835
ltoes -29.8963
647
root 9.72298 20.5873 -8.1439 -156.538 -0.0277881 175.333
lowerback -19.1327 -0.540787 -7.64963
upperback 2.17557 1.17998 -1.64581
thorax 13.171 0.00192822 2.84333
lowerneck -0.849076 -0.390977 -2.99339
upperneck 20.5166 -3.08971 5.51479
head 6.47026 -1.94977 2.02162
rclavicle 2.28602e-015 7.95139e-015
rhumerus -31.9744 -10.797 -81.2406
rradius 37.758
rwrist -6.67044
rhand -9.70226 -50.4695
rfingers 7.12502
rthumb 16.2704 -79.8068
lclavicle 2.28602e-015 7.95139e-015
lhumerus -31.2427 3.83141 78.2543
lradius 25.5915
lwrist -3.11685
lhand -19.2432 -14.333
lfingers 7.12502
lthumb 7.07041 15.5289
rfemur -27.0751 5.83003 20.3219
rtibia 16.1245
rfoot -18.8476 -9.95094
rtoes -12.5511
lfemur -78.1914 -4.91436 -22.3593
ltibia 77.9815
lfoot -13.195 2.23159
ltoes -31.298
648
root 9.7252 20.5856 -8.19256 -156.686 -0.0491378 175.355
lowerback -19.1843 -0.500161 -7.64883
upperback 2.28762 1.24989 -1.63362
thorax 13.3253 0.0272755 2.87772
lowerneck -1.1563 -0.433517 -3.22388
upperneck 20.7107 -3.15255 5.61177
head 6.59269 -1.98179 2.08592
rclavicle 1.73937e-015 2.26615e-014
rhumerus -31.762 -10.5177 -81.2755
rradius 37.7698
rwrist -6.95851
rhand -9.7665 -50.6309
rfingers 7.12502
rthumb 16.2085 -79.9733
lclavicle 1.73937e-015 2.26615e-014
lhumerus -31.2022 4.3841 78.2083
lradius 25.2844
lwrist -3.59794
lhand -19.1519 -14.4325
lfingers 7.12502
lthumb 7.15854 15.4264
rfemur -26.5783 5.70694 20.4494
rtibia 15.8675
rfoot -18.9185 -9.88333
rtoes -13.5445
lfemur -77.9744 -5.04607 -22.2438
ltibia 76.2977
lfoot -12.71 1.80619
ltoes -31.2506
649
root 9.72928 20.5862 -8.23487 -156.861 0.00812651 175.315
lowerback -19.0312 -0.38984 -7.72857
upperback 2.26767 1.40361 -1.69354
thorax 13.1953 0.099043 2.89905
lowerneck -0.656168 -0.462766 -3.34759
upperneck 20.3756 -3.2057 5.79468
head 6.40414 -2.01372 2.16687
rclavicle 7.50412e-015 -3.47873e-014
rhumerus -31.8018 -10.2854 -81.3201
rradius 37.8116
rwrist -7.34225
rhand -10.0743 -50.1257
rfingers 7.12502
rthumb 15.9121 -79.492
lclavicle 7.50412e-015 -3.47873e-014
lhumerus -31.5814 4.54227 78.1416
lradius 25.2939
lwrist -3.84657
lhand -18.9408 -14.2473
lfingers 7.12502
lthumb 7.36228 15.6046
rfemur -26.1747 5.66361 20.4553
rtibia 15.8248
rfoot -19.0837 -9.81481
rtoes -14.2424
lfemur -77.709 -5.08145 -22.2028
ltibia 74.7564
lfoot -12.2691 1.29432
ltoes -30.7848
650
root 9.73731 20.5879 -8.2712 -157.003 0.0134785 175.314
lowerback -18.8581 -0.298158 -7.80577
upperback 2.2268 1.52762 -1.76124
thorax 13.0327 0.159165 2.90043
lowerneck -0.34092 -0.508221 -3.30394
upperneck 20.2391 -3.28883 5.84197
head 6.31013 -2.05748 2.17242
rclavicle -4.07509e-015 -1.74931e-014
rhumerus -31.9331 -10.1887 -81.4344
rradius 37.9377
rwrist -7.62704
rhand -10.726 -49.3922
rfingers 7.12502
rthumb 15.2844 -78.8074
lclavicle -4.07509e-015 -1.74931e-014
lhumerus -31.7693 4.42428 78.0872
lradius 25.2055
lwrist -3.71831
lhand -18.8606 -13.5101
lfingers 7.12502
lthumb 7.43968 16.3391
rfemur -25.8755 5.60922 20.5201
rtibia 15.8202
rfoot -19.5297 -9.80093
rtoes -12.3632
lfemur -77.5536 -5.11143 -22.0525
ltibia 73.4663
lfoot -11.9788 0.66535
ltoes -29.507
651
root 9.74388 20.5847 -8.30924 -157.065 -0.0835899 175.363
lowerback -18.8375 -0.309445 -7.78948
upperback 2.2212 1.50675 -1.76796
thorax 13.0167 0.151694 2.87728
lowerneck -0.515336 -0.426464 -3.04533
upperneck 20.5143 -3.13595 5.39837
head 6.4129 -1.99577 1.99311
rclavicle -6.16232e-015 -4.65156e-014
rhumerus -31.7929 -10.1393 -81.5342
rradius 37.7332
rwrist -7.59926
rhand -10.8628 -48.9965
rfingers 7.12502
rthumb 15.1526 -78.4217
lclavicle -6.16232e-015 -4.65156e-014
lhumerus -31.6928 4.58945 78.0156
lradius 24.8112
lwrist -3.60994
lhand -18.7882 -13.0425
lfingers 7.12502
lthumb 7.50961 16.8042
rfemur -25.6044 5.3539 20.7112
rtibia 15.8361
rfoot -20.0622 -9.62938
rtoes -10.2351
lfemur -77.4263 -5.24916 -21.8188
ltibia 72.2415
lfoot -11.7398 -0.0203285
ltoes -27.4654
652
root 9.74542 20.5775 -8.35611 -157.097 -0.146243 175.396
lowerback -19.013 -0.369892 -7.75254
upperback 2.27594 1.43856 -1.74766
thorax 13.1917 0.114685 2.86134
lowerneck -0.390068 -0.296498 -3.1012
upperneck 20.3186 -2.94237 5.50077
head 6.32101 -1.8971 2.04803
rclavicle -9.93923e-015 -1.07344e-014
rhumerus -31.5502 -9.86274 -81.6447
rradius 37.5448
rwrist -7.51805
rhand -10.5512 -49.0213
rfingers 7.12502
rthumb 15.4528 -78.4237
lclavicle -9.93923e-015 -1.07344e-014
lhumerus -31.7353 5.26358 77.8627
lradius 24.54
lwrist -3.95346
lhand -18.6879 -13.5455
lfingers 7.12502
lthumb 7.60645 16.2978
rfemur -25.3094 4.992 20.8999
rtibia 15.8644
rfoot -19.9495 -9.51682
rtoes -14.8336
lfemur -77.1875 -5.42034 -21.6607
ltibia 70.9462
lfoot -11.3678 -0.533812
ltoes -29.428
